# xmcd
#
# Track frame offsets:
#	183
#	17333
#	42520
#	62638
#	75750
#	98388
#	131845
#	154820
#	187628
#	199830
#	223165
#	242770
#	255113
#	279245
#	301815
#
# Disc length: 4348 seconds
#
# Revision: 1
# Processed by: cddbd v1.4PL0 Copyright (c) Steve Scherf et al.
# Submitted via: audiograbber 1.81.03
#
DISCID=b110fa0f
DTITLE=Various Artist - Texas Harmonica Rumble
DYEAR=1990
DGENRE=Blues
TTITLE0=Paul Orta - I Got To Go
TTITLE1=Paul Orta - Love In The Night
TTITLE2=Paul Orta - Last Call
TTITLE3=Darrell Nulisch - Mother-In-Law
TTITLE4=Darrell Nulisch - Going A Way
TTITLE5=Greg Taylor - Last Night
TTITLE6=Greg Taylor - Bad Boy
TTITLE7=Gary Primich - Sade
TTITLE8=Gary Primich - Take That
TTITLE9=Memo Gonzalez - Cry Baby
TTITLE10=Memo Gonzalez - Lone Wolf
TTITLE11=Lewis Cowdrey - Texas Rumble
TTITLE12=Lewis Cowdrey - Sweet Home Chicago
TTITLE13=Walter T. Higgs - Good Side Of Evil
TTITLE14=Walter T. Higgs - Hard To Be A Lover
EXTD=Live In Austin Texas 12.12.90
EXTT0=
EXTT1=
EXTT2=
EXTT3=
EXTT4=
EXTT5=
EXTT6=
EXTT7=
EXTT8=
EXTT9=
EXTT10=
EXTT11=
EXTT12=
EXTT13=
EXTT14=
PLAYORDER=
